# xmcd
#
# Track frame offsets:
#	150
#	28180
#	48380
#	73807
#	94995
#	122455
#	143862
#	164667
#	198340
#	226585
#	261635
#	296985
#
# Disc length: 4281 seconds
#
# Revision: 1
# Processed by: cddbd v1.5.2PL0 Copyright (c) Steve Scherf et al.
# Submitted via: audiograbber 1.83.01
#
DISCID=bb10b70c
DTITLE=Red Devils - Allright
DYEAR=1995
DGENRE=Blues
TTITLE0=Automatic
TTITLE1=Going to the church
TTITLE2=Backstreet crawl
TTITLE3=The hook
TTITLE4=Time to cry
TTITLE5=She's dangerous
TTITLE6=Going to the church
TTITLE7=Who do you love
TTITLE8=Cross your heart
TTITLE9=Tail dragger
TTITLE10=Boogie around the clock
TTITLE11=I wish you would
EXTD=
EXTT0=
EXTT1=
EXTT2=
EXTT3=
EXTT4=
EXTT5=
EXTT6=
EXTT7=
EXTT8=
EXTT9=
EXTT10=
EXTT11=
PLAYORDER=
